<svg xmlns="http://www.w3.org/2000/svg" viewBox="0 0 256 256" role="img" aria-labelledby="title desc">
  <title id="title">RPIC Community Logo</title>
  <desc id="desc">Circular RPIC Directorate of ICT seal in blue, orange, and white.</desc>
  <defs>
    <path id="topArc" d="M 40 128 A 88 88 0 0 1 216 128" />
    <path id="bottomArc" d="M 216 128 A 88 88 0 0 1 40 128" />
  </defs>
  <circle cx="128" cy="128" r="122" fill="#ffffff" />
  <circle cx="128" cy="128" r="120" fill="none" stroke="#f97316" stroke-width="8" />
  <circle cx="128" cy="128" r="108" fill="none" stroke="#0f4fa8" stroke-width="10" />
  <circle cx="128" cy="128" r="86" fill="#ffffff" stroke="#0f4fa8" stroke-width="6" />
  <text fill="#0f4fa8" font-size="11" font-weight="700" font-family="Arial, sans-serif" letter-spacing="1.3">
    <textPath href="#topArc" startOffset="50%" text-anchor="middle">RESEARCH PLANNING &amp; INNOVATION</textPath>
  </text>
  <text fill="#0f4fa8" font-size="11" font-weight="700" font-family="Arial, sans-serif" letter-spacing="1.2">
    <textPath href="#bottomArc" startOffset="50%" text-anchor="middle">DIRECTORATE OF ICT</textPath>
  </text>
  <circle cx="128" cy="128" r="56" fill="#f8fbff" stroke="#0f4fa8" stroke-width="4" />
  <circle cx="128" cy="128" r="47" fill="#ffffff" stroke="#0f4fa8" stroke-width="2.5" />
  <path d="M128 90c14 0 25 11 25 25v12c0 18-10 35-25 45-15-10-25-27-25-45v-12c0-14 11-25 25-25Z" fill="#0f4fa8" opacity=".1" />
  <path d="M128 98c9 0 16 7 16 16v10c0 12-6.3 23.5-16 31-9.7-7.5-16-19-16-31v-10c0-9 7-16 16-16Z" fill="#ffffff" stroke="#0f4fa8" stroke-width="3" />
  <path d="M128 106v40M116 118h24M118 132c6 4 14 4 20 0" stroke="#0f4fa8" stroke-width="3" stroke-linecap="round" fill="none" />
  <circle cx="128" cy="128" r="3.5" fill="#f97316" />
  <path d="M78 168h100" stroke="#0f4fa8" stroke-width="3" stroke-linecap="round" />
  <text x="128" y="183" text-anchor="middle" fill="#0f4fa8" font-size="14" font-weight="800" font-family="Arial, sans-serif" letter-spacing="2">RPIC</text>
</svg>
