<svg xmlns="http://www.w3.org/2000/svg" viewBox="0 0 64 64" role="img" aria-labelledby="title">
  <title>RPIC Community</title>
  <circle cx="32" cy="32" r="31" fill="#ffffff" />
  <circle cx="32" cy="32" r="30" fill="none" stroke="#f97316" stroke-width="2.4" />
  <circle cx="32" cy="32" r="26.5" fill="none" stroke="#0f4fa8" stroke-width="3" />
  <circle cx="32" cy="32" r="18" fill="#ffffff" stroke="#0f4fa8" stroke-width="1.8" />
  <path d="M32 22.5c4.8 0 8.5 3.7 8.5 8.5v5.3c0 6.3-3.3 12.1-8.5 16-5.2-3.9-8.5-9.7-8.5-16V31c0-4.8 3.7-8.5 8.5-8.5Z" fill="#ffffff" stroke="#0f4fa8" stroke-width="1.8" />
  <path d="M32 27v15.8M26.2 31.8h11.6M27.4 37.1c3.1 2 6.1 2 9.2 0" stroke="#0f4fa8" stroke-width="1.8" stroke-linecap="round" fill="none" />
  <circle cx="32" cy="32" r="1.6" fill="#f97316" />
  <path d="M19.5 45.3h25" stroke="#0f4fa8" stroke-width="1.6" stroke-linecap="round" />
</svg>
